<svg xmlns="http://www.w3.org/2000/svg" viewBox="0 0 128 128">
  <defs>
    <linearGradient id="mainGrad" x1="0%" y1="0%" x2="100%" y2="100%">
      <stop offset="0%" style="stop-color:#0077b5;stop-opacity:1" />
      <stop offset="50%" style="stop-color:#a066c2;stop-opacity:1" />
      <stop offset="100%" style="stop-color:#d946ef;stop-opacity:1" />
    </linearGradient>
    <filter id="f1" x="-20%" y="-20%" width="140%" height="140%">
      <feDropShadow dx="0" dy="4" stdDeviation="4" flood-color="#000000" flood-opacity="0.25"/>
    </filter>
  </defs>
  
  <!-- Background with gradient and shadow -->
  <rect x="8" y="8" width="112" height="112" rx="28" fill="url(#mainGrad)" filter="url(#f1)" />
  
  <!-- Central Graphic: Flowing Nodes -->
  <g transform="translate(64, 64)">
    <!-- Connected Path -->
    <path d="M-32 10 C-15 -20, 15 20, 32 -10" fill="none" stroke="white" stroke-width="10" stroke-linecap="round" stroke-linejoin="round"/>
    
    <!-- Nodes -->
    <circle cx="-32" cy="10" r="7" fill="white"/>
    <circle cx="0" cy="0" r="7" fill="white"/>
    <circle cx="32" cy="-10" r="7" fill="white"/>
    
    <!-- Sparkles for AI -->
    <path d="M20 -35 L23 -42 L26 -35 L33 -32 L26 -29 L23 -22 L20 -29 L13 -32 Z" fill="white" />
    <path d="M-25 35 L-23 30 L-21 35 L-16 37 L-21 39 L-23 44 L-25 39 L-30 37 Z" fill="white" opacity="0.9"/>
  </g>
</svg>
